<svg xmlns="http://www.w3.org/2000/svg" width="1280" height="720" viewBox="0 0 1280 720" fill="#1d1d1b"><path d="M201.2 267.8c12.5 9.1 19.9 22.1 22.2 38.9l-45 8.9c-.4-7.6-3.3-13.7-8.7-18.3s-12.3-6.9-20.6-6.9c-7.6 0-13.8 1.9-18.7 5.7s-7.3 8.6-7.3 14.4c0 6 4.5 10.5 13.5 13.5l27.4 8.7c13.5 4.3 23.7 10.3 30.6 17.9s10.3 17.6 10.3 30.1c0 19-7.2 34.2-21.5 45.8-14.4 11.6-33.2 17.3-56.5 17.3-20.8 0-38.4-4.8-52.8-14.5S51.6 406.1 50 388.8l47.1-8.9c2.3 17.7 13.3 26.5 32.8 26.5 9 0 16.1-1.9 21.3-5.6 5.1-3.7 7.7-8.6 7.7-14.8 0-3.4-1.2-6.3-3.7-8.5-2.4-2.3-6.8-4.3-13.1-6.1l-22.5-6.5c-13.7-4.3-24.5-10.2-32.4-17.5s-11.8-17.5-11.8-30.5c0-18.8 7.1-34 21.4-45.5 14.3-11.6 32.8-17.3 55.5-17.3 20.1 0 36.4 4.6 48.9 13.7m69 129.3c5.1 6.5 12.5 9.8 22.1 9.8 9 0 17.3-3.3 24.9-10s12.2-15.1 13.8-25.2c1.6-10.3-.3-18.7-5.7-25.3s-12.6-9.9-21.7-9.9c-9.9 0-18.4 3.3-25.5 9.8-7 6.5-11.4 15-13 25.5-1.7 10.4 0 18.8 5.1 25.3m88.7 42.6h-43.3l1.9-8.4c-11.4 8.3-24.7 12.5-40.1 12.5-18.4 0-33-6.8-43.7-20.3s-14.5-30.8-11.2-51.7c3.4-21.3 12.4-38.6 27-52 14.5-13.4 31.5-20 50.8-20 20.8 0 35.1 7.1 43.1 21.4l4.1-17.3h43.1l-31.7 135.8zm81.9-54.5c-2.9 13.2.6 19.8 10.6 19.8 6.3 0 14-1.9 23-5.7l2.4 35.2c-11.9 6.1-25.2 9.2-39.8 9.2-16.1 0-27.9-4.7-35.4-14s-9.2-22.7-5-40.2l29-126H469l-9.2 40.1h40.1L492 338h-40.4l-10.8 47.2zm57.4 54.5 31.4-136H573l-31.5 136zm82-197.4c5.2 5.3 7.9 11.7 7.9 19 0 7.5-2.6 13.8-7.7 18.8s-11.7 7.6-19.6 7.6c-8.1 0-14.7-2.5-19.9-7.4-5.1-4.9-7.7-11.3-7.7-19 0-7.5 2.6-13.9 7.9-19.1 5.2-5.2 11.8-7.9 19.7-7.9 7.7 0 14.2 2.7 19.4 8m35.3 152.9c1.1 5.4 4 9.5 8.7 12.3s9.9 4.2 15.7 4.2c5.2 0 9.5-1.1 12.7-3.2 3.3-2.2 4.9-4.8 4.9-7.9 0-4.2-4.3-7.3-13-9.5l-20.3-6.2c-21.7-6.1-32.5-18.9-32.5-38.2 0-14.1 5.4-25.5 16.1-34.1 10.7-8.7 25.2-13 43.5-13 16.3 0 29.9 3.5 40.9 10.6 11 7 17.8 16.5 20.3 28.4l-37.7 8.7c-.9-4.9-3.5-8.9-7.9-12.1-4.3-3.2-9.9-4.7-16.8-4.7-10.5 0-15.7 3.6-15.7 10.8 0 4.7 4.1 8.3 12.2 10.8l16.3 5.1c12.6 3.8 21.9 8.9 27.8 15.3s8.8 14.7 8.8 24.8c0 14.3-5.8 25.6-17.3 33.9-11.6 8.3-26.5 12.5-44.7 12.5-15.9 0-29.8-3.3-41.9-9.9-12-6.6-19.5-16.6-22.6-29.9l42.5-8.7zm308.2-91.5-50.9 80.2-10.5-66.1c-1.3-8.1-8.3-14.1-16.5-14.1h-49.6l1.9-8.7c1.3-5.4 3.8-9.6 7.7-12.6s8.5-4.5 13.9-4.5c3.8 0 7.8.4 12.2 1.1l7.7-35.4c-5.5-1.9-12-2.8-19.6-2.8-16.4 0-30.4 4.6-41.9 13.8s-19.2 22-23.2 38.5l-2.4 10.6h-19.2l-7.9 34.4h19.2l-23.3 101.6h43.3l23.3-101.6h33.8l17.8 98.1-31.5 49.5h46.3l117.3-182h-47.9zm132.8 52.5c-2.1-14.8-10.6-22.2-25.2-22.2-14.5 0-25.4 7.4-32.8 22.2h58zm26.2-34c11.2 15.1 14.7 35.3 10.6 60.5H993.2c.4 8.1 2.8 14.5 7.2 19.2 4.5 4.7 11 7 19.6 7 12.9 0 22.8-5.5 29.8-16.5l37.6 8.7c-6.8 13.9-16.4 24.5-28.9 31.7-12.4 7.2-26.2 10.8-41.2 10.8-19.5 0-35.1-5.7-46.7-17.1S953.1 400 953.1 381c0-23.1 8.1-42.5 24.3-58.1s35.2-23.4 57.1-23.4c21 .1 37 7.7 48.2 22.7m147.3-19.3-11.9 43.3h-8.1c-31.1 0-50.5 17-58.2 50.9l-9.8 42.5h-43.3l31.4-136h43.1l-5.1 22.5c15.3-16.3 32.9-24.4 52.5-24.4 3.4.1 6.5.4 9.4 1.2"/></svg>